<svg width="18" height="18" viewBox="0 0 18 18" fill="none" xmlns="http://www.w3.org/2000/svg">
<path fill-rule="evenodd" clip-rule="evenodd" d="M7.707 1.69125C7.76925 1.6875 7.83525 1.6875 7.92075 1.6875H10.08C10.1648 1.6875 10.2308 1.6875 10.2938 1.69125C10.6834 1.71494 11.0584 1.84874 11.375 2.07709C11.6917 2.30545 11.937 2.61898 12.0825 2.98125C12.1058 3.039 12.1275 3.10125 12.1537 3.18225L12.156 3.18975C12.219 3.35775 12.3622 3.549 12.5632 3.702C12.5857 3.719 12.6082 3.735 12.6307 3.75C14.2455 3.75225 15.0892 3.7815 15.6698 4.25475C15.7898 4.35225 15.8982 4.46075 15.9952 4.58025C16.5 5.2005 16.5 6.11925 16.5 7.95675C16.5 8.42325 16.5 8.65575 16.3875 8.838C16.3653 8.87354 16.3403 8.90715 16.3125 8.9385C16.17 9.099 15.9472 9.16575 15.501 9.3L12 10.35V9.75C12 9.35218 11.842 8.97064 11.5607 8.68934C11.2794 8.40804 10.8978 8.25 10.5 8.25H7.5C7.10218 8.25 6.72064 8.40804 6.43934 8.68934C6.15804 8.97064 6 9.35218 6 9.75V10.35L2.499 9.3C2.05275 9.16575 1.82925 9.099 1.6875 8.9385C1.65974 8.90715 1.63465 8.87354 1.6125 8.838C1.5 8.65575 1.5 8.42325 1.5 7.95675C1.5 6.11925 1.5 5.2005 2.00475 4.58025C2.10225 4.46025 2.21075 4.35175 2.33025 4.25475C2.9115 3.78225 3.7545 3.75225 5.37 3.75C5.3925 3.735 5.415 3.719 5.4375 3.702C5.63775 3.549 5.78175 3.357 5.844 3.18975C5.8725 3.10425 5.8935 3.03975 5.9175 2.9805C6.06311 2.61837 6.30849 2.30499 6.62513 2.07678C6.94176 1.84856 7.31666 1.71487 7.70625 1.69125M11.1135 3.6135C11.131 3.66 11.151 3.7055 11.1735 3.75H6.82575C6.84725 3.705 6.86725 3.6595 6.88575 3.6135V3.61125L6.8895 3.60375L6.89325 3.59475L6.897 3.58575L6.89925 3.57825L6.90075 3.5745L6.90375 3.5655L6.90675 3.5565L6.90825 3.552L6.9105 3.546L6.912 3.54075L6.9135 3.53625C6.94275 3.44925 6.95175 3.4215 6.96075 3.4005C7.02686 3.23582 7.13836 3.09328 7.28227 2.98946C7.42619 2.88563 7.59662 2.82479 7.77375 2.814C7.79775 2.8125 7.82775 2.8125 7.935 2.8125H10.0635C10.1708 2.8125 10.2008 2.8125 10.2248 2.814C10.5863 2.8365 10.9028 3.0645 11.0385 3.4005C11.046 3.4215 11.0557 3.44775 11.085 3.53625L11.0865 3.54075L11.088 3.546L11.0903 3.552L11.0917 3.5565L11.0948 3.5655L11.0977 3.5745L11.0992 3.57825L11.1023 3.58575L11.1053 3.59475L11.109 3.60375L11.112 3.61125L11.1135 3.6135ZM10.5 9.375H7.5C7.40054 9.375 7.30516 9.41451 7.23483 9.48483C7.16451 9.55516 7.125 9.65054 7.125 9.75V11.3715C7.12502 11.4464 7.14746 11.5196 7.18943 11.5816C7.2314 11.6436 7.29098 11.6916 7.3605 11.7195L7.8855 11.9295C8.60093 12.2158 9.39907 12.2158 10.1145 11.9295L10.6395 11.7195C10.709 11.6916 10.7686 11.6436 10.8106 11.5816C10.8525 11.5196 10.875 11.4464 10.875 11.3715V9.75C10.875 9.65054 10.8355 9.55516 10.7652 9.48483C10.6948 9.41451 10.5995 9.375 10.5 9.375ZM6.0075 11.5275L2.2545 10.401C2.277 12.7365 2.4135 14.8882 3.2385 15.621C4.227 16.5 5.8185 16.5 9 16.5C12.1815 16.5 13.773 16.5 14.7615 15.621C15.5865 14.8882 15.723 12.7365 15.7455 10.401L11.9918 11.5268C11.9635 11.7986 11.8615 12.0575 11.6968 12.2756C11.5321 12.4937 11.311 12.6627 11.0573 12.7642L10.5323 12.9742C9.54865 13.3678 8.45135 13.3678 7.46775 12.9742L6.94275 12.7642C6.68903 12.6627 6.46788 12.4937 6.30318 12.2756C6.13848 12.0575 6.0365 11.7986 6.00825 11.5268" fill="#491217" fill-opacity="0.8"/>
</svg>
