<svg width="44" height="44" viewBox="0 0 44 44" fill="none" xmlns="http://www.w3.org/2000/svg">
<path d="M23.375 37.125V28.875H28.875L22 20.625L15.125 28.875H20.625V37.125H13.75V37.0563C13.519 37.07 13.299 37.125 13.0625 37.125C10.3275 37.125 7.70443 36.0385 5.77046 34.1045C3.83649 32.1706 2.75 29.5475 2.75 26.8125C2.75 21.5215 6.75125 17.2095 11.8855 16.6183C12.3357 14.2651 13.5917 12.1423 15.4377 10.615C17.2837 9.08775 19.6041 8.25147 22 8.25C24.3962 8.25132 26.7171 9.0875 28.5635 10.6147C30.4099 12.142 31.6665 14.2648 32.1173 16.6183C37.2515 17.2095 41.2472 21.5215 41.2472 26.8125C41.2472 29.5475 40.1608 32.1706 38.2268 34.1045C36.2928 36.0385 33.6698 37.125 30.9347 37.125C30.7037 37.125 30.481 37.07 30.2472 37.0563V37.125H23.375Z" fill="black"/>
</svg>
