<svg width="67" height="66" viewBox="0 0 67 66" fill="none" xmlns="http://www.w3.org/2000/svg">
<path d="M47.9375 23.0923V21.6562C47.9375 15.1903 38.1845 10.3125 25.25 10.3125C12.3155 10.3125 2.5625 15.1903 2.5625 21.6562V31.9688C2.5625 37.3545 9.33008 41.6341 19.0625 42.9155V44.3438C19.0625 50.8097 28.8155 55.6875 41.75 55.6875C54.6845 55.6875 64.4375 50.8097 64.4375 44.3438V34.0312C64.4375 28.6945 57.8839 24.4097 47.9375 23.0923ZM14.9375 37.8649C9.88695 36.4547 6.6875 34.1318 6.6875 31.9688V28.3413C8.79125 29.8315 11.6091 31.0329 14.9375 31.8398V37.8649ZM35.5625 31.8398C38.8909 31.0329 41.7088 29.8315 43.8125 28.3413V31.9688C43.8125 34.1318 40.613 36.4547 35.5625 37.8649V31.8398ZM31.4375 50.2399C26.387 48.8297 23.1875 46.5068 23.1875 44.3438V43.2687C23.8655 43.2945 24.5513 43.3125 25.25 43.3125C26.2503 43.3125 27.2274 43.279 28.1865 43.2223C29.2519 43.6036 30.3372 43.9272 31.4375 44.1916V50.2399ZM31.4375 38.7363C29.3889 39.039 27.3208 39.1898 25.25 39.1875C23.1792 39.1898 21.1111 39.039 19.0625 38.7363V32.603C21.1141 32.8701 23.181 33.0027 25.25 33C27.319 33.0027 29.3859 32.8701 31.4375 32.603V38.7363ZM47.9375 51.1113C43.8344 51.7127 39.6656 51.7127 35.5625 51.1113V44.9625C37.6135 45.2382 39.6806 45.376 41.75 45.375C43.819 45.3777 45.8859 45.2451 47.9375 44.978V51.1113ZM60.3125 44.3438C60.3125 46.5068 57.113 48.8297 52.0625 50.2399V44.2148C55.3909 43.4079 58.2088 42.2065 60.3125 40.7163V44.3438Z" fill="#491217"/>
</svg>
