<svg width="44" height="44" viewBox="0 0 44 44" fill="none" xmlns="http://www.w3.org/2000/svg">
<path d="M31.625 15.3948V14.4375C31.625 10.1269 25.123 6.875 16.5 6.875C7.87703 6.875 1.375 10.1269 1.375 14.4375V21.3125C1.375 24.903 5.88672 27.7561 12.375 28.6103V29.5625C12.375 33.8731 18.877 37.125 27.5 37.125C36.123 37.125 42.625 33.8731 42.625 29.5625V22.6875C42.625 19.1297 38.2559 16.2731 31.625 15.3948ZM9.625 25.2433C6.25797 24.3031 4.125 22.7545 4.125 21.3125V18.8942C5.5275 19.8877 7.40609 20.6886 9.625 21.2266V25.2433ZM23.375 21.2266C25.5939 20.6886 27.4725 19.8877 28.875 18.8942V21.3125C28.875 22.7545 26.742 24.3031 23.375 25.2433V21.2266ZM20.625 33.4933C17.258 32.5531 15.125 31.0045 15.125 29.5625V28.8458C15.577 28.863 16.0342 28.875 16.5 28.875C17.1669 28.875 17.8183 28.8527 18.4577 28.8148C19.168 29.0691 19.8915 29.2848 20.625 29.4611V33.4933ZM20.625 25.8242C19.2593 26.026 17.8805 26.1265 16.5 26.125C15.1195 26.1265 13.7407 26.026 12.375 25.8242V21.7353C13.7428 21.9134 15.1207 22.0018 16.5 22C17.8793 22.0018 19.2572 21.9134 20.625 21.7353V25.8242ZM31.625 34.0742C28.8896 34.4751 26.1104 34.4751 23.375 34.0742V29.975C24.7423 30.1588 26.1204 30.2507 27.5 30.25C28.8793 30.2518 30.2572 30.1634 31.625 29.9853V34.0742ZM39.875 29.5625C39.875 31.0045 37.742 32.5531 34.375 33.4933V29.4766C36.5939 28.9386 38.4725 28.1377 39.875 27.1442V29.5625Z" fill="#FDDF5A"/>
</svg>
