<svg width="39" height="41" viewBox="0 0 39 41" fill="none" xmlns="http://www.w3.org/2000/svg">
<rect y="0.619995" width="38.5" height="39.7" rx="19.25" fill="#E9F5FD"/>
<path d="M9 18.62C9 14.2 12.584 10.62 17.005 10.62H21.371C25.861 10.62 29.5 14.26 29.5 18.75C29.5 21.71 27.893 24.43 25.304 25.86L17.25 30.32V26.63H17.183C12.693 26.73 9 23.12 9 18.62ZM17.005 12.62C13.688 12.62 11 15.31 11 18.62C11 21.99 13.77 24.7 17.138 24.63L17.489 24.62H19.25V26.92L24.337 24.11C26.288 23.03 27.5 20.98 27.5 18.75C27.5 15.36 24.756 12.62 21.371 12.62H17.005Z" fill="#299DED"/>
</svg>
