<svg width="24" height="24" viewBox="0 0 24 24" fill="none" xmlns="http://www.w3.org/2000/svg">
<path d="M16.9996 4H15.9996H6.56958C5.49958 4 4.58958 4.67 4.37958 5.61L3.03958 11.61C2.76958 12.85 3.81958 14 5.22958 14H9.45958L7.93958 18.94C7.61958 19.97 8.45958 21 9.61958 21C10.1996 21 10.7596 20.76 11.1396 20.35L16.9996 14H20.9996V4H16.9996ZM10.3996 19.67C10.2096 19.88 9.91958 20 9.61958 20C9.35958 20 9.11958 19.89 8.98958 19.7C8.91958 19.6 8.83958 19.44 8.89958 19.23L10.4196 14.29L10.8196 13H9.45958H5.22958C4.81958 13 4.42958 12.83 4.19958 12.54C4.07958 12.39 3.94958 12.14 4.01958 11.82L5.35958 5.82C5.45958 5.35 5.96958 5 6.56958 5H15.9996V13.61L10.3996 19.67ZM19.9996 13H16.9996V5H19.9996V13Z" fill="black"/>
</svg>
