<svg width="25" height="24" viewBox="0 0 25 24" fill="none" xmlns="http://www.w3.org/2000/svg">
<path d="M11.3574 4H4.35742C3.82699 4 3.31828 4.21071 2.94321 4.58579C2.56814 4.96086 2.35742 5.46957 2.35742 6V20C2.35742 20.5304 2.56814 21.0391 2.94321 21.4142C3.31828 21.7893 3.82699 22 4.35742 22H18.3574C18.8879 22 19.3966 21.7893 19.7716 21.4142C20.1467 21.0391 20.3574 20.5304 20.3574 20V13" stroke="#624DE3" stroke-width="2" stroke-linecap="round" stroke-linejoin="round"/>
<path d="M18.8574 2.49998C19.2552 2.10216 19.7948 1.87866 20.3574 1.87866C20.92 1.87866 21.4596 2.10216 21.8574 2.49998C22.2552 2.89781 22.4787 3.43737 22.4787 3.99998C22.4787 4.56259 22.2552 5.10216 21.8574 5.49998L12.3574 15L8.35742 16L9.35742 12L18.8574 2.49998Z" stroke="#624DE3" stroke-width="2" stroke-linecap="round" stroke-linejoin="round"/>
</svg>
