<svg width="16" height="17" viewBox="0 0 16 17" fill="none" xmlns="http://www.w3.org/2000/svg">
<path d="M7.99967 1.83325C4.31967 1.83325 1.33301 4.81992 1.33301 8.49992C1.33301 12.1799 4.31967 15.1666 7.99967 15.1666C11.6797 15.1666 14.6663 12.1799 14.6663 8.49992C14.6663 4.81992 11.6797 1.83325 7.99967 1.83325ZM7.99967 14.4999C4.69301 14.4999 1.99967 11.8066 1.99967 8.49992C1.99967 5.19325 4.69301 2.49992 7.99967 2.49992C11.3063 2.49992 13.9997 5.19325 13.9997 8.49992C13.9997 11.8066 11.3063 14.4999 7.99967 14.4999ZM11.333 9.16659C11.333 9.83325 10.6663 11.8333 7.99967 11.8333C5.33301 11.8333 4.66634 9.83325 4.66634 9.16659C5.33301 9.16659 10.6663 9.16659 11.333 9.16659ZM4.03301 7.16659C4.18634 6.40659 4.85967 5.83325 5.66634 5.83325C6.47301 5.83325 7.14634 6.40659 7.29967 7.16659H6.60634C6.46634 6.77992 6.09967 6.49992 5.66634 6.49992C5.23301 6.49992 4.86634 6.77992 4.72634 7.16659H4.03301ZM8.69967 7.16659C8.85301 6.40659 9.52634 5.83325 10.333 5.83325C11.1397 5.83325 11.813 6.40659 11.9663 7.16659H11.273C11.133 6.77992 10.7663 6.49992 10.333 6.49992C9.89967 6.49992 9.53301 6.77992 9.39301 7.16659H8.69967Z" fill="black"/>
</svg>
