<svg width="24" height="24" viewBox="0 0 24 24" fill="none" xmlns="http://www.w3.org/2000/svg">
<path d="M16.62 3.00004H7.37C5.95189 2.99737 4.59052 3.55679 3.58402 4.55579C2.57752 5.55479 2.00793 6.91195 2 8.33004V15.66C2.0053 17.0799 2.57372 18.4396 3.5805 19.4407C4.58729 20.4419 5.95017 21.0027 7.37 21H16.62C18.0408 21.0027 19.4047 20.4422 20.4131 19.4414C21.4214 18.4405 21.9921 17.0808 22 15.66V8.33004C21.9921 6.91021 21.4211 5.55154 20.4124 4.55226C19.4038 3.55297 18.0398 2.99472 16.62 3.00004ZM10.98 12.58C10.9986 13.0863 10.8775 13.588 10.63 14.03C10.392 14.4289 10.0451 14.7515 9.63 14.96C9.19011 15.1817 8.70243 15.2916 8.21 15.28C7.658 15.2931 7.11254 15.1584 6.63 14.89C6.17051 14.6247 5.80124 14.2276 5.57 13.75C5.30228 13.2062 5.16855 12.6061 5.18 12C5.18 11.527 5.258 11.058 5.41 10.61C5.55209 10.2361 5.76999 9.89567 6.05 9.61004C6.33071 9.32154 6.67238 9.09945 7.05 8.96004C7.75138 8.68882 8.52482 8.66763 9.24 8.90004C9.539 9.00004 9.82 9.14904 10.07 9.34004C10.5574 9.72525 10.8764 10.2844 10.96 10.9H9.58C9.53187 10.6888 9.42744 10.4945 9.27778 10.3378C9.12813 10.1811 8.93883 10.0678 8.73 10.01C8.57091 9.9859 8.40909 9.9859 8.25 10.01C7.93912 9.99583 7.63167 10.08 7.37136 10.2505C7.11105 10.4211 6.91112 10.6693 6.8 10.96C6.64971 11.3173 6.57809 11.7027 6.59 12.09C6.58204 12.4794 6.64997 12.8666 6.79 13.23C6.913 13.517 7.114 13.762 7.37 13.94C7.632 14.108 7.939 14.192 8.25 14.18C8.519 14.188 8.786 14.133 9.03 14.02C9.25051 13.9107 9.43205 13.7361 9.55 13.52C9.65669 13.3165 9.71164 13.0898 9.71 12.86H8.31V11.86H11.01L10.98 12.58ZM13.45 15.12C13.4584 15.1426 13.4584 15.1675 13.45 15.19H12.18V8.98004H13.45C13.4561 8.99957 13.4561 9.02051 13.45 9.04004V15.12ZM18.79 9.94004H16.02C16.0156 9.94941 16.0132 9.95966 16.0132 9.97004C16.0132 9.98041 16.0156 9.99066 16.02 10V11.34C16.017 11.3599 16.017 11.3802 16.02 11.4H18.59V12.52H16.02C16.0139 12.5396 16.0139 12.5605 16.02 12.58V15.08H14.76V8.82004C14.7583 8.80914 14.7592 8.798 14.7626 8.78751C14.766 8.77702 14.7719 8.76749 14.7797 8.75969C14.7875 8.7519 14.797 8.74605 14.8075 8.74264C14.818 8.73922 14.8291 8.73833 14.84 8.74004H18.79V9.94004Z" fill="#491217"/>
</svg>
