<svg width="41" height="39" viewBox="0 0 41 39" fill="none" xmlns="http://www.w3.org/2000/svg">
<rect x="0.681641" y="0.640869" width="40.0006" height="37.6582" rx="18.8291" fill="#FEE9F2"/>
<path d="M25.379 12.6391C24.1569 12.5791 22.6999 13.1491 21.4889 14.7991L20.6839 15.8891L19.8779 14.7991C18.6659 13.1491 17.2079 12.5791 15.9859 12.6391C14.7429 12.7091 13.6369 13.4191 13.0759 14.5491C12.5239 15.6691 12.4429 17.3291 13.5549 19.3691C14.6289 21.3391 16.8119 23.6391 20.6839 25.9791C24.5539 23.6391 26.736 21.3391 27.8099 19.3691C28.9209 17.3291 28.8399 15.6691 28.2869 14.5491C27.7259 13.4191 26.6209 12.7091 25.379 12.6391ZM29.566 20.3291C28.215 22.8091 25.5649 25.4491 21.1869 27.9991L20.6839 28.2991L20.1799 27.9991C15.8009 25.4491 13.1509 22.8091 11.7979 20.3291C10.4379 17.8291 10.3879 15.4691 11.2839 13.6591C12.1709 11.8691 13.9309 10.7491 15.8849 10.6491C17.5359 10.5591 19.2529 11.2091 20.683 12.6591C22.1119 11.2091 23.829 10.5591 25.479 10.6491C27.433 10.7491 29.193 11.8691 30.08 13.6591C30.976 15.4691 30.926 17.8291 29.566 20.3291Z" fill="#F72381"/>
</svg>
