<svg width="24" height="24" viewBox="0 0 24 24" fill="none" xmlns="http://www.w3.org/2000/svg">
<path d="M2.30031 20.28L11.9003 10.68L10.5003 9.26003L9.78031 9.97003C9.6878 10.0627 9.57791 10.1363 9.45694 10.1865C9.33596 10.2366 9.20628 10.2625 9.07531 10.2625C8.94434 10.2625 8.81466 10.2366 8.69369 10.1865C8.57271 10.1363 8.46283 10.0627 8.37031 9.97003L7.66031 9.26003C7.56761 9.16751 7.49406 9.05762 7.44388 8.93665C7.3937 8.81568 7.36787 8.686 7.36787 8.55503C7.36787 8.42406 7.3937 8.29438 7.44388 8.1734C7.49406 8.05243 7.56761 7.94254 7.66031 7.85003L13.3203 2.19003C13.4128 2.09732 13.5227 2.02378 13.6437 1.97359C13.7647 1.92341 13.8943 1.89758 14.0253 1.89758C14.1563 1.89758 14.286 1.92341 14.4069 1.97359C14.5279 2.02378 14.6378 2.09732 14.7303 2.19003L15.4403 2.90003C15.8303 3.29003 15.8303 3.92003 15.4403 4.31003L14.7303 5.00003L16.1503 6.43003C16.2428 6.33732 16.3527 6.26378 16.4737 6.21359C16.5947 6.16341 16.7243 6.13758 16.8553 6.13758C16.9863 6.13758 17.116 6.16341 17.2369 6.21359C17.3579 6.26378 17.4678 6.33732 17.5603 6.43003C17.9503 6.82003 17.9503 7.46003 17.5603 7.85003L18.9703 9.26003L19.6803 8.55003C20.0703 8.16003 20.7103 8.16003 21.1003 8.55003L21.8003 9.26003C22.1903 9.65003 22.1903 10.29 21.8003 10.68L16.1503 16.33C15.7603 16.72 15.1203 16.72 14.7303 16.33L14.0303 15.63C13.9354 15.5378 13.8599 15.4274 13.8083 15.3054C13.7568 15.1835 13.7302 15.0524 13.7302 14.92C13.7302 14.7876 13.7568 14.6566 13.8083 14.5346C13.8599 14.4127 13.9354 14.3023 14.0303 14.21L14.7303 13.5L13.3203 12.09L3.71031 21.7C3.6178 21.7927 3.50791 21.8663 3.38694 21.9165C3.26596 21.9666 3.13628 21.9925 3.00531 21.9925C2.87434 21.9925 2.74466 21.9666 2.62369 21.9165C2.50271 21.8663 2.39283 21.7927 2.30031 21.7C1.91031 21.31 1.91031 20.67 2.30031 20.28ZM20.0003 19C20.5307 19 21.0395 19.2107 21.4145 19.5858C21.7896 19.9609 22.0003 20.4696 22.0003 21V22H12.0003V21C12.0003 20.4696 12.211 19.9609 12.5861 19.5858C12.9612 19.2107 13.4699 19 14.0003 19H20.0003Z" fill="#491217"/>
</svg>
