<svg width="24" height="24" viewBox="0 0 24 24" fill="none" xmlns="http://www.w3.org/2000/svg">
<path d="M2.29995 20.28L11.8999 10.68L10.4999 9.26003L9.77995 9.97003C9.68743 10.0627 9.57754 10.1363 9.45657 10.1865C9.3356 10.2366 9.20591 10.2625 9.07495 10.2625C8.94398 10.2625 8.81429 10.2366 8.69332 10.1865C8.57235 10.1363 8.46246 10.0627 8.36995 9.97003L7.65995 9.26003C7.56724 9.16751 7.49369 9.05762 7.44351 8.93665C7.39333 8.81568 7.3675 8.686 7.3675 8.55503C7.3675 8.42406 7.39333 8.29438 7.44351 8.1734C7.49369 8.05243 7.56724 7.94254 7.65995 7.85003L13.3199 2.19003C13.4125 2.09732 13.5223 2.02378 13.6433 1.97359C13.7643 1.92341 13.894 1.89758 14.0249 1.89758C14.1559 1.89758 14.2856 1.92341 14.4066 1.97359C14.5275 2.02378 14.6374 2.09732 14.7299 2.19003L15.4399 2.90003C15.8299 3.29003 15.8299 3.92003 15.4399 4.31003L14.7299 5.00003L16.1499 6.43003C16.2425 6.33732 16.3523 6.26378 16.4733 6.21359C16.5943 6.16341 16.724 6.13758 16.8549 6.13758C16.9859 6.13758 17.1156 6.16341 17.2366 6.21359C17.3575 6.26378 17.4674 6.33732 17.5599 6.43003C17.9499 6.82003 17.9499 7.46003 17.5599 7.85003L18.9699 9.26003L19.6799 8.55003C20.0699 8.16003 20.7099 8.16003 21.0999 8.55003L21.7999 9.26003C22.1899 9.65003 22.1899 10.29 21.7999 10.68L16.1499 16.33C15.7599 16.72 15.1199 16.72 14.7299 16.33L14.0299 15.63C13.935 15.5378 13.8595 15.4274 13.808 15.3054C13.7564 15.1835 13.7299 15.0524 13.7299 14.92C13.7299 14.7876 13.7564 14.6566 13.808 14.5346C13.8595 14.4127 13.935 14.3023 14.0299 14.21L14.7299 13.5L13.3199 12.09L3.70995 21.7C3.61743 21.7927 3.50754 21.8663 3.38657 21.9165C3.2656 21.9666 3.13591 21.9925 3.00495 21.9925C2.87398 21.9925 2.7443 21.9666 2.62332 21.9165C2.50235 21.8663 2.39246 21.7927 2.29995 21.7C1.90995 21.31 1.90995 20.67 2.29995 20.28ZM19.9999 19C20.5304 19 21.0391 19.2107 21.4142 19.5858C21.7892 19.9609 21.9999 20.4696 21.9999 21V22H11.9999V21C11.9999 20.4696 12.2107 19.9609 12.5857 19.5858C12.9608 19.2107 13.4695 19 13.9999 19H19.9999Z" fill="white"/>
</svg>
