<svg width="39" height="37" viewBox="0 0 39 37" fill="none" xmlns="http://www.w3.org/2000/svg">
<rect x="0.65918" y="0.349976" width="37.864" height="36.24" rx="18.12" fill="#E8F8F2"/>
<path d="M12.0912 10.35L16.5232 14.49L15.1592 15.95L13.0912 14.02V22.47C13.0912 23.57 13.9872 24.47 15.0912 24.47H20.5912V26.47H15.0912C12.8822 26.47 11.0912 24.68 11.0912 22.47V14.02L9.02318 15.95L7.65918 14.49L12.0912 10.35ZM24.0912 12.47H18.5912V10.47H24.0912C26.3002 10.47 28.0912 12.26 28.0912 14.47V22.92L30.1592 20.99L31.5232 22.45L27.0912 26.59L22.6592 22.45L24.0232 20.99L26.0912 22.92V14.47C26.0912 13.37 25.1952 12.47 24.0912 12.47Z" fill="#1CB97E"/>
</svg>
