<svg width="16" height="16" viewBox="0 0 16 16" fill="none" xmlns="http://www.w3.org/2000/svg">
<path fill-rule="evenodd" clip-rule="evenodd" d="M4.69336 8.62402C4.69336 8.78223 4.74609 8.91406 4.85156 9.01953L6.66211 10.8301C6.80859 10.9473 6.9668 11.0059 7.13672 11.0059C7.30078 11.0059 7.43555 10.918 7.54102 10.7422L10.793 5.87305C10.875 5.74414 10.9014 5.60352 10.8721 5.45117C10.8428 5.29883 10.7637 5.18164 10.6348 5.09961C10.5059 5.01758 10.3652 4.98828 10.2129 5.01172C10.0605 5.03516 9.9375 5.11133 9.84375 5.24023L6.97852 9.54688L5.66016 8.22852C5.54297 8.11133 5.4082 8.05566 5.25586 8.06152C5.10351 8.06738 4.97168 8.12305 4.86035 8.22852C4.74902 8.33398 4.69336 8.46582 4.69336 8.62402ZM15.75 8.34277C15.75 8.91114 15.6182 9.42968 15.3545 9.89844C15.0908 10.3672 14.7363 10.7305 14.291 10.9883C14.3027 11.0703 14.3086 11.1992 14.3086 11.375C14.3086 12.207 14.0303 12.916 13.4736 13.502C12.917 14.0879 12.2461 14.3809 11.4609 14.3809C11.1094 14.3809 10.7754 14.3164 10.459 14.1875C10.2129 14.6914 9.8584 15.0986 9.39551 15.4092C8.93262 15.7197 8.42285 15.875 7.86621 15.875C7.30957 15.875 6.80274 15.7227 6.3457 15.418C5.88867 15.1133 5.53711 14.7031 5.29102 14.1875C4.97461 14.3164 4.64063 14.3809 4.28906 14.3809C3.5039 14.3809 2.83008 14.0879 2.26758 13.502C1.70508 12.916 1.42383 12.207 1.42383 11.375C1.42383 11.2812 1.43555 11.1523 1.45898 10.9883C1.01367 10.7305 0.659181 10.3672 0.395508 9.89844C0.131835 9.42968 0 8.91114 0 8.34277C0 7.77441 0.146483 7.24707 0.439453 6.76074C0.732423 6.27441 1.125 5.91406 1.61719 5.67969C1.48828 5.32812 1.42383 4.97656 1.42383 4.625C1.42383 3.79296 1.70508 3.08399 2.26758 2.49805C2.83008 1.91211 3.5039 1.61914 4.28906 1.61914C4.64063 1.61914 4.97461 1.68359 5.29102 1.8125C5.53711 1.30859 5.8916 0.901369 6.35449 0.59082C6.81739 0.280272 7.32422 0.125 7.875 0.125C8.42578 0.125 8.93262 0.280272 9.39551 0.59082C9.8584 0.901369 10.2129 1.30859 10.459 1.8125C10.7754 1.68359 11.1094 1.61914 11.4609 1.61914C12.2461 1.61914 12.917 1.91211 13.4736 2.49805C14.0303 3.08399 14.3086 3.79296 14.3086 4.625C14.3086 5.01172 14.25 5.36328 14.1328 5.67969C14.625 5.91406 15.0176 6.27441 15.3105 6.76074C15.6035 7.24707 15.75 7.77441 15.75 8.34277Z" fill="#491217"/>
</svg>
