<svg width="74" height="74" viewBox="0 0 74 74" fill="none" xmlns="http://www.w3.org/2000/svg">
<path d="M52.154 29.6923H15.7755C14.8013 29.6923 13.8607 29.3368 13.13 28.6926L10.9228 26.7463C3.97336 18.7332 11.591 14.3732 16.2684 13.1948H21.2823C21.8346 13.1948 22.2823 12.7471 22.2823 12.1948V9.65959C22.2823 6.1105 26.0239 3.6886 28.8116 2.53191C29.7815 2.12951 30.834 2 31.884 2H39.6558C42.9443 1.99997 45.9329 4.43418 46.7725 6.33784C46.9953 6.84316 47.4539 7.30278 48.0061 7.30278H51.2837C52.4368 7.30278 53.5959 7.41976 54.6724 7.83314C57.9332 9.08527 62.375 11.9564 62.375 16.73C62.375 21.9782 57.0058 26.9558 53.7402 29.2156C53.2749 29.5376 52.7198 29.6923 52.154 29.6923Z" stroke="#491217" stroke-width="2.5"/>
<line x1="37.5769" y1="33.813" x2="37.5769" y2="42.097" stroke="#491217" stroke-width="2.5"/>
<line x1="12" y1="37.3634" x2="12" y2="42.0971" stroke="#491217" stroke-width="2.5"/>
<line x1="64.5" y1="37.3634" x2="64.5" y2="42.0971" stroke="#491217" stroke-width="2.5"/>
<line x1="12.5" y1="36.1346" x2="63.25" y2="36.1346" stroke="#491217" stroke-width="2.5"/>
<path d="M21.25 45.0769H4.75V46.2735H2V51.6581M2 51.6581V70.2051H4.75V72H12.3125H19.875V70.2051H21.25V51.6581H2ZM6.8125 60.0342H15.0625M6.8125 57.0427H15.0625M5.4375 48.0684H19.875" stroke="#491217" stroke-width="2.5"/>
<path d="M46.625 45.0769H30.125V46.2735H27.375V51.6581M27.375 51.6581V70.2051H30.125V72H37.6875H45.25V70.2051H46.625V51.6581H27.375ZM32.1875 60.0342H40.4375M32.1875 57.0427H40.4375M30.8125 48.0684H45.25" stroke="#491217" stroke-width="2.5"/>
<path d="M72 45.0769H55.5V46.2735H52.75V51.6581M52.75 51.6581V70.2051H55.5V72H63.0625H70.625V70.2051H72V51.6581H52.75ZM57.5625 60.0342H65.8125M57.5625 57.0427H65.8125M56.1875 48.0684H70.625" stroke="#491217" stroke-width="2.5"/>
</svg>
