<svg width="66" height="66" viewBox="0 0 66 66" fill="none" xmlns="http://www.w3.org/2000/svg">
<path d="M6.325 55.77L32.725 29.37L28.875 25.465L26.895 27.4175C26.6406 27.6724 26.3384 27.8747 26.0057 28.0127C25.673 28.1507 25.3164 28.2217 24.9563 28.2217C24.5961 28.2217 24.2395 28.1507 23.9068 28.0127C23.5741 27.8747 23.2719 27.6724 23.0175 27.4175L21.065 25.465C20.8101 25.2106 20.6078 24.9084 20.4698 24.5757C20.3318 24.243 20.2608 23.8864 20.2608 23.5262C20.2608 23.1661 20.3318 22.8094 20.4698 22.4768C20.6078 22.1441 20.8101 21.8419 21.065 21.5875L36.63 6.02248C36.8844 5.76755 37.1866 5.56529 37.5193 5.42729C37.852 5.28929 38.2086 5.21826 38.5688 5.21826C38.9289 5.21826 39.2855 5.28929 39.6182 5.42729C39.9509 5.56529 40.2531 5.76755 40.5075 6.02248L42.46 7.97498C43.5325 9.04748 43.5325 10.78 42.46 11.8525L40.5075 13.75L44.4125 17.6825C44.6669 17.4275 44.9691 17.2253 45.3018 17.0873C45.6345 16.9493 45.9911 16.8783 46.3513 16.8783C46.7114 16.8783 47.068 16.9493 47.4007 17.0873C47.7334 17.2253 48.0356 17.4275 48.29 17.6825C49.3625 18.755 49.3625 20.515 48.29 21.5875L52.1675 25.465L54.12 23.5125C55.1925 22.44 56.9525 22.44 58.025 23.5125L59.95 25.465C61.0225 26.5375 61.0225 28.2975 59.95 29.37L44.4125 44.9075C43.34 45.98 41.58 45.98 40.5075 44.9075L38.5825 42.9825C38.3214 42.7287 38.1138 42.4252 37.9721 42.0898C37.8303 41.7545 37.7573 41.3941 37.7573 41.03C37.7573 40.6659 37.8303 40.3055 37.9721 39.9701C38.1138 39.6348 38.3214 39.3312 38.5825 39.0775L40.5075 37.125L36.63 33.2475L10.2025 59.675C9.94809 59.9299 9.6459 60.1322 9.31322 60.2702C8.98055 60.4082 8.62392 60.4792 8.26376 60.4792C7.90359 60.4792 7.54696 60.4082 7.21429 60.2702C6.88161 60.1322 6.57942 59.9299 6.325 59.675C5.2525 58.6025 5.2525 56.8425 6.325 55.77ZM55 52.25C56.4587 52.25 57.8576 52.8294 58.8891 53.8609C59.9205 54.8923 60.5 56.2913 60.5 57.75V60.5H33V57.75C33 56.2913 33.5795 54.8923 34.6109 53.8609C35.6424 52.8294 37.0413 52.25 38.5 52.25H55Z" fill="#491217"/>
</svg>
